<?xml version="1.0" encoding="UTF-8" standalone="no"?>
<!-- Created with Inkscape (http://www.inkscape.org/) -->

<svg
   xmlns:osb="http://www.openswatchbook.org/uri/2009/osb"
   xmlns:dc="http://purl.org/dc/elements/1.1/"
   xmlns:cc="http://creativecommons.org/ns#"
   xmlns:rdf="http://www.w3.org/1999/02/22-rdf-syntax-ns#"
   xmlns:svg="http://www.w3.org/2000/svg"
   xmlns="http://www.w3.org/2000/svg"
   xmlns:xlink="http://www.w3.org/1999/xlink"
   xmlns:sodipodi="http://sodipodi.sourceforge.net/DTD/sodipodi-0.dtd"
   xmlns:inkscape="http://www.inkscape.org/namespaces/inkscape"
   width="1052.3622"
   height="744.09448"
   id="svg2"
   version="1.1"
   inkscape:version="0.48.3.1 r9886"
   sodipodi:docname="LogoCompleto.svg"
   inkscape:export-filename="/home/chepecarlos/LogoCompleto.png"
   inkscape:export-xdpi="299.99377"
   inkscape:export-ydpi="299.99377">
  <defs
     id="defs4">
    <linearGradient
       id="linearGradient3885">
      <stop
         style="stop-color:#00979c;stop-opacity:1;"
         offset="0"
         id="stop3887" />
      <stop
         id="stop3889"
         offset="0.5"
         style="stop-color:#ffffff;stop-opacity:1;" />
      <stop
         style="stop-color:#00979c;stop-opacity:1;"
         offset="1"
         id="stop3891" />
    </linearGradient>
    <linearGradient
       id="linearGradient3877">
      <stop
         id="stop3879"
         offset="0"
         style="stop-color:#00979c;stop-opacity:1;" />
      <stop
         style="stop-color:#ffffff;stop-opacity:1;"
         offset="0.5"
         id="stop3881" />
      <stop
         id="stop3883"
         offset="1"
         style="stop-color:#00979c;stop-opacity:1;" />
    </linearGradient>
    <linearGradient
       id="linearGradient3869">
      <stop
         style="stop-color:#00979c;stop-opacity:1;"
         offset="0"
         id="stop3871" />
      <stop
         id="stop3873"
         offset="0.5"
         style="stop-color:#ffffff;stop-opacity:1;" />
      <stop
         style="stop-color:#00979c;stop-opacity:1;"
         offset="1"
         id="stop3875" />
    </linearGradient>
    <linearGradient
       id="linearGradient3861">
      <stop
         id="stop3863"
         offset="0"
         style="stop-color:#00979c;stop-opacity:1;" />
      <stop
         style="stop-color:#ffffff;stop-opacity:1;"
         offset="0.5"
         id="stop3865" />
      <stop
         id="stop3867"
         offset="1"
         style="stop-color:#00979c;stop-opacity:1;" />
    </linearGradient>
    <linearGradient
       id="linearGradient5471">
      <stop
         id="stop5473"
         offset="0"
         style="stop-color:#3325cb;stop-opacity:0.97457629;" />
      <stop
         style="stop-color:#5000b6;stop-opacity:0.86666667;"
         offset="0.5"
         id="stop5477" />
      <stop
         id="stop5475"
         offset="1"
         style="stop-color:#9600fa;stop-opacity:0.76271188;" />
    </linearGradient>
    <linearGradient
       id="linearGradient5445"
       osb:paint="gradient">
      <stop
         style="stop-color:#000000;stop-opacity:1;"
         offset="0"
         id="stop5447" />
      <stop
         style="stop-color:#000000;stop-opacity:0;"
         offset="1"
         id="stop5449" />
    </linearGradient>
    <linearGradient
       id="linearGradient4005"
       osb:paint="solid">
      <stop
         style="stop-color:#000000;stop-opacity:1;"
         offset="0"
         id="stop4007" />
    </linearGradient>
    <linearGradient
       id="linearGradient3955">
      <stop
         id="stop3957"
         offset="0"
         style="stop-color:#000000;stop-opacity:0;" />
      <stop
         id="stop3959"
         offset="1"
         style="stop-color:#000000;stop-opacity:1;" />
    </linearGradient>
    <linearGradient
       id="linearGradient3915">
      <stop
         style="stop-color:#00979c;stop-opacity:1;"
         offset="0"
         id="stop3917" />
      <stop
         id="stop3859"
         offset="0.5"
         style="stop-color:#ffffff;stop-opacity:1;" />
      <stop
         style="stop-color:#00979c;stop-opacity:1;"
         offset="1"
         id="stop3919" />
    </linearGradient>
    <filter
       inkscape:collect="always"
       id="filter3841-9"
       color-interpolation-filters="sRGB">
      <feGaussianBlur
         inkscape:collect="always"
         stdDeviation="0.56748784"
         id="feGaussianBlur3843-8" />
    </filter>
    <filter
       inkscape:collect="always"
       id="filter3845-6"
       x="-0.23395866"
       width="1.4679173"
       y="-0.26094222"
       height="1.5218844"
       color-interpolation-filters="sRGB">
      <feGaussianBlur
         inkscape:collect="always"
         stdDeviation="0.56748784"
         id="feGaussianBlur3847-4" />
    </filter>
    <filter
       inkscape:collect="always"
       id="filter3849-2"
       color-interpolation-filters="sRGB">
      <feGaussianBlur
         inkscape:collect="always"
         stdDeviation="0.56748784"
         id="feGaussianBlur3851-7" />
    </filter>
    <inkscape:path-effect
       is_visible="true"
       id="path-effect3071"
       effect="spiro" />
    <inkscape:path-effect
       fuse_tolerance="0"
       vertical_pattern="false"
       prop_units="false"
       tang_offset="0"
       normal_offset="0"
       spacing="0"
       scale_y_rel="false"
       prop_scale="1"
       copytype="single_stretched"
       pattern="M 0,5 10,10 10,0 z"
       is_visible="true"
       id="path-effect3073"
       effect="skeletal" />
    <inkscape:path-effect
       is_visible="true"
       id="path-effect3111"
       effect="spiro" />
    <linearGradient
       osb:paint="solid"
       id="linearGradient5221">
      <stop
         id="stop5223"
         offset="0"
         style="stop-color:#000000;stop-opacity:1;" />
    </linearGradient>
    <linearGradient
       inkscape:collect="always"
       xlink:href="#linearGradient3915"
       id="linearGradient3921"
       x1="364.68571"
       y1="580.44797"
       x2="1043.5082"
       y2="580.44797"
       gradientUnits="userSpaceOnUse"
       gradientTransform="translate(1.4285763,17.142857)" />
    <linearGradient
       inkscape:collect="always"
       xlink:href="#linearGradient3915"
       id="linearGradient3929"
       x1="423.67609"
       y1="763.53143"
       x2="968.39691"
       y2="763.53143"
       gradientUnits="userSpaceOnUse" />
    <linearGradient
       inkscape:collect="always"
       xlink:href="#linearGradient3955"
       id="linearGradient3953"
       x1="364.33572"
       y1="580.448"
       x2="1043.8582"
       y2="580.448"
       gradientUnits="userSpaceOnUse"
       gradientTransform="translate(1.4285763,17.142857)" />
    <linearGradient
       inkscape:collect="always"
       xlink:href="#linearGradient5445"
       id="linearGradient5453"
       x1="410.43512"
       y1="1044.037"
       x2="1221.5265"
       y2="1044.037"
       gradientUnits="userSpaceOnUse" />
    <linearGradient
       inkscape:collect="always"
       xlink:href="#linearGradient5471"
       id="linearGradient5495"
       gradientUnits="userSpaceOnUse"
       x1="391.89706"
       y1="778.38654"
       x2="967.68402"
       y2="772.30261"
       gradientTransform="scale(1.0099333,0.99016435)" />
    <linearGradient
       inkscape:collect="always"
       xlink:href="#linearGradient5471"
       id="linearGradient5545"
       x1="26.124508"
       y1="262.16812"
       x2="745.21509"
       y2="262.16812"
       gradientUnits="userSpaceOnUse" />
    <linearGradient
       inkscape:collect="always"
       xlink:href="#linearGradient3915"
       id="linearGradient5555"
       gradientUnits="userSpaceOnUse"
       x1="364.6857"
       y1="580.448"
       x2="1043.5082"
       y2="580.448"
       gradientTransform="matrix(1.4256927,0,0,0.75674446,-440.14005,-322.76341)" />
    <linearGradient
       inkscape:collect="always"
       xlink:href="#linearGradient3955"
       id="linearGradient5557"
       gradientUnits="userSpaceOnUse"
       x1="364.33572"
       y1="580.448"
       x2="1043.8582"
       y2="580.448"
       gradientTransform="matrix(1.4256927,0,0,0.75674446,-440.14005,-322.76341)" />
    <linearGradient
       inkscape:collect="always"
       xlink:href="#linearGradient3885"
       id="linearGradient3907"
       x1="26.124508"
       y1="262.16812"
       x2="745.21509"
       y2="262.16812"
       gradientUnits="userSpaceOnUse" />
    <linearGradient
       inkscape:collect="always"
       xlink:href="#linearGradient3885"
       id="linearGradient3924"
       gradientUnits="userSpaceOnUse"
       x1="26.124508"
       y1="262.16812"
       x2="745.21509"
       y2="262.16812"
       gradientTransform="translate(3.1578714,-117.13696)" />
    <linearGradient
       inkscape:collect="always"
       xlink:href="#linearGradient3885"
       id="linearGradient3926"
       gradientUnits="userSpaceOnUse"
       x1="26.124508"
       y1="262.16812"
       x2="745.21509"
       y2="262.16812"
       gradientTransform="translate(3.1578714,-117.13696)" />
    <linearGradient
       inkscape:collect="always"
       xlink:href="#linearGradient3885"
       id="linearGradient3928"
       gradientUnits="userSpaceOnUse"
       x1="26.124508"
       y1="262.16812"
       x2="745.21509"
       y2="262.16812"
       gradientTransform="translate(3.1578714,-117.13696)" />
    <linearGradient
       inkscape:collect="always"
       xlink:href="#linearGradient3885"
       id="linearGradient3930"
       gradientUnits="userSpaceOnUse"
       x1="26.124508"
       y1="262.16812"
       x2="745.21509"
       y2="262.16812"
       gradientTransform="translate(3.1578714,-117.13696)" />
    <linearGradient
       inkscape:collect="always"
       xlink:href="#linearGradient3885"
       id="linearGradient3932"
       gradientUnits="userSpaceOnUse"
       x1="26.124508"
       y1="262.16812"
       x2="745.21509"
       y2="262.16812"
       gradientTransform="translate(3.1578714,-117.13696)" />
  </defs>
  <sodipodi:namedview
     id="base"
     pagecolor="#ffffff"
     bordercolor="#666666"
     borderopacity="1.0"
     inkscape:pageopacity="0.0"
     inkscape:pageshadow="2"
     inkscape:zoom="0.49497475"
     inkscape:cx="684.86143"
     inkscape:cy="262.33314"
     inkscape:document-units="px"
     inkscape:current-layer="layer1"
     showgrid="false"
     inkscape:window-width="1366"
     inkscape:window-height="694"
     inkscape:window-x="0"
     inkscape:window-y="25"
     inkscape:window-maximized="1"
     showguides="true"
     inkscape:guide-bbox="true">
    <sodipodi:guide
       orientation="1,0"
       position="334.28571,335.71429"
       id="guide5583" />
    <sodipodi:guide
       orientation="1,0"
       position="981.42857,78.571429"
       id="guide5585" />
  </sodipodi:namedview>
  <metadata
     id="metadata7">
    <rdf:RDF>
      <cc:Work
         rdf:about="">
        <dc:format>image/svg+xml</dc:format>
        <dc:type
           rdf:resource="http://purl.org/dc/dcmitype/StillImage" />
        <dc:title></dc:title>
      </cc:Work>
    </rdf:RDF>
  </metadata>
  <g
     inkscape:label="Layer 1"
     inkscape:groupmode="layer"
     id="layer1"
     transform="translate(0,-308.2677)">
    <g
       style="font-size:225.25115967px;font-style:normal;font-variant:normal;font-weight:normal;font-stretch:normal;line-height:125%;letter-spacing:0px;word-spacing:0px;fill:url(#linearGradient3921);fill-opacity:1;stroke:url(#linearGradient3953);stroke-width:0.69999999;stroke-linecap:butt;stroke-linejoin:bevel;stroke-miterlimit:4;stroke-opacity:0.93779901;stroke-dasharray:none;font-family:Chintzy CPU Shadow BRK;-inkscape-font-specification:Chintzy CPU Shadow BRK"
       id="text2985"
       transform="translate(-1.4285763,-17.142857)">
      <g
         id="g5547"
         style="fill:url(#linearGradient5555);fill-opacity:1;stroke:url(#linearGradient5557);stroke-width:0.72708571"
         transform="matrix(0.70141342,0,0,1.3214501,310.14873,443.65859)">
        <g
           transform="scale(1.368169,0.73090388)"
           style="font-size:264.19396973px;font-style:normal;font-variant:normal;font-weight:normal;font-stretch:normal;line-height:125%;letter-spacing:0px;word-spacing:0px;fill:url(#linearGradient3924);fill-opacity:1;stroke:none;font-family:Chintzy CPU BRK;-inkscape-font-specification:Chintzy CPU BRK"
           id="text5535">
          <path
             d="m 33.19882,158.40054 c 0.704511,-0.70444 1.84935,-1.84928 3.434522,-3.43452 1.585153,-1.76122 3.25838,-3.61057 5.019685,-5.54807 1.937407,-1.93734 3.698698,-3.69864 5.28388,-5.28388 1.585142,-1.76121 2.729982,-2.99411 3.434521,-3.69872 0.880623,-1.05668 1.849333,-2.72991 2.906134,-5.01968 1.056749,-2.28959 1.585136,-3.96282 1.585164,-5.01969 l 0,-40.950048 3.434521,-6.076464 33.515806,-29.2467 3.47135,-3.275895 41.136147,-0.132357 c 1.58505,1.8e-4 3.6986,-0.387099 6.34066,0.317241 2.64182,0.70469 4.30509,0.194321 5.36199,1.427049 l 31.17489,30.910662 c 0.3521,0.528538 0.79243,1.321118 1.32097,2.377746 0.52823,1.05692 0.96855,2.201758 1.32097,3.434518 0.52823,1.233048 0.96855,2.465948 1.32097,3.698716 0.3521,1.056908 0.52823,1.937548 0.52838,2.641938 l 0,38.836504 3.43453,6.07646 16.90841,17.96519 c 1.23273,1.40911 2.20144,3.34653 2.90613,5.81227 0.70434,2.28974 1.0566,4.31523 1.05678,6.07646 l 0,36.19457 c -1.8e-4,4.051 -1.40921,7.92584 -4.2271,11.62454 -2.64212,3.52259 -6.07663,5.28388 -10.30357,5.28388 -1.4092,0 -2.90629,-0.35225 -4.4913,-1.05678 -1.58532,-0.70451 -3.08242,-1.58515 -4.49129,-2.64194 -1.40919,-1.23289 1.07949,-2.73874 0.0229,-4.14779 -0.8808,-1.58515 -1.32112,-2.71248 -1.32097,-4.12153 l -1.48864,-41.13495 c -1.5e-4,-1.40897 -2.67342,-3.0822 -3.55392,-5.01968 -0.88079,-1.93736 -2.02563,-3.78672 -3.43452,-5.54808 -1.23305,-1.76122 -2.73015,-3.25832 -4.4913,-4.4913 -1.76143,-1.23283 -3.43466,-1.84928 -5.01968,-1.84935 l -68.162049,0 c -1.056845,7e-5 -2.377813,0.52846 -3.96291,1.58516 -1.409098,0.88072 -2.906196,2.02556 -4.491297,3.43452 -1.409094,1.23298 -2.641998,2.64201 -3.698716,4.22711 -0.880703,1.40909 -1.321026,2.642 -1.32097,3.69871 l -2.046873,40.52725 c -5.6e-5,0.52841 1.870688,0.95123 1.518485,2.00798 -0.352313,1.05679 -0.792636,2.20163 -1.320969,3.43452 -0.528442,1.05679 -1.056829,2.11357 -1.585164,3.17033 -0.52844,0.88066 -0.880699,1.49711 -1.056776,1.84936 -2.994247,4.05098 -6.428765,6.78098 -10.303565,8.19001 -3.698753,1.23291 -7.925852,1.84936 -12.681311,1.84936 -4.755515,0 -9.070679,-0.61645 -12.945504,-1.84936 -3.698728,-1.40903 -7.045181,-4.13903 -10.039371,-8.19001 -0.352264,-0.52838 -0.968716,-1.58515 -1.849358,-3.17033 -0.70452,-1.58515 -1.056778,-2.55386 -1.056776,-2.90613 l 0,-46.76234 2.906134,-6.07646 m 121.00084,-57.85848 c -1.3e-4,-1.937288 -0.26432,-4.138896 -0.79258,-6.604844 -0.52851,-2.641796 -1.3211,-5.107604 -2.37775,-7.397422 -1.0569,-2.289528 -2.46593,-4.226956 -4.2271,-5.812254 -1.76141,-1.585018 -3.96303,-2.377598 -6.60485,-2.377748 l -43.063619,0 c -1.056845,1.5e-4 -2.377813,0.52854 -3.96291,1.585158 -1.409098,0.8808 -2.818131,2.025638 -4.227103,3.434518 -1.232966,1.233048 -2.377805,2.642086 -3.434522,4.227104 -0.880703,1.40917 -1.321026,2.730138 -1.32097,3.962908 l -2.046873,18.51983 c -5.6e-5,1.93754 2.663269,3.23224 3.896231,4.99342 1.232846,1.58528 2.729943,2.99431 4.491298,4.2271 1.937357,1.23302 3.962842,2.28979 6.076461,3.17033 2.113481,0.70462 3.962837,1.05688 5.548077,1.05678 l 34.08102,0 c 2.99409,1e-4 5.63602,-0.70441 7.92582,-2.11355 2.28956,-1.40893 4.13892,-3.25829 5.54807,-5.54808 1.58504,-2.28956 2.72988,-4.75537 3.43452,-7.39743 0.7044,-2.81794 1.05665,-5.45988 1.05678,-7.92582"
             style="fill:url(#linearGradient3926);fill-opacity:1"
             id="path3910"
             inkscape:connector-curvature="0"
             sodipodi:nodetypes="ccccccccccccccccccccccccccsccccccccccccccccccccscccscccccccccccccccccccccc" />
          <path
             d="m 216.7532,182.39441 0.39473,-118.52777 c 0.0106,-3.170141 0.70763,-4.331355 3.70183,-6.621203 2.99419,-2.465638 0.98842,-3.437072 3.98263,-3.437252 2.11354,1.8e-4 4.57727,-0.429236 6.33858,0.803494 1.9374,1.056948 2.73309,1.420111 3.96602,3.181231 1.40901,1.585328 2.9921,2.38882 3.69665,4.502208 0.88062,2.113708 2.63672,2.135524 2.63675,4.248912 l 1.05262,38.83921 1.06612,6.85814 17.96104,18.09592 c 1.05672,1.05686 3.34121,1.81769 4.22191,4.63566 1.05672,2.81816 1.58511,4.93171 1.58516,6.34066 l 0,38.83651 c -5e-5,1.58521 0.70446,3.25843 2.11355,5.01969 1.40898,1.76133 3.08221,3.34649 5.01969,4.75549 2.11349,1.40907 4.13897,2.5539 6.07646,3.43452 2.11348,0.88068 3.87477,1.321 5.28388,1.32097 l 90.09014,0 c 1.40887,3e-5 2.81791,0.52842 4.22711,1.58516 1.40886,0.88068 2.72983,2.02552 3.96291,3.43453 1.23273,1.40905 2.20144,2.99421 2.90613,4.75549 0.70434,1.58518 1.0566,2.99421 1.05678,4.2271 -1.8e-4,2.28969 -0.61663,4.31518 -1.84936,6.07646 -1.05695,1.7613 -2.46598,3.2584 -4.2271,4.4913 -1.76147,1.23291 -3.69889,2.20162 -5.81227,2.90613 -2.11372,0.70452 -4.22727,1.05678 -6.34066,1.05678 l -109.90469,0 c -1.58521,0 -3.69876,-0.35226 -6.34065,-1.05678 -2.46585,-0.70451 -4.31521,-1.67322 -5.54808,-2.90613 l -31.17489,-30.9107 0.38332,-3.59253"
             style="fill:url(#linearGradient3928);fill-opacity:1"
             id="path3912"
             inkscape:connector-curvature="0"
             sodipodi:nodetypes="csccccccccccccccccccccccccsscccc" />
          <path
             d="m 395.56861,189.34364 c -10e-6,-3.34642 -0.61024,-8.77642 1.32719,-10.53776 1.93742,-1.93737 4.55708,-4.7364 7.72742,-4.7364 0.88063,5e-5 1.84934,5e-5 2.90613,0 1.05676,-0.17608 3.45055,4.88258 4.15509,5.76317 0.52837,0.52844 1.58514,1.58522 3.17033,3.17033 1.58514,1.58521 3.25836,3.25844 5.01969,5.01969 1.93739,1.5852 4.06052,1.83034 5.64571,3.41547 1.58513,1.40907 3.38786,0.64557 4.09242,1.17392 1.40899,1.23294 2.15055,1.09042 4.26415,1.79491 2.1135,0.70454 5.10354,-0.77347 6.86488,-0.7735 l 54.44161,0.7844 c 3.16988,0.0457 6.07531,0.34139 8.18898,-1.06768 2.28956,-1.58513 6.77048,-1.34276 8.17963,-3.45634 1.58504,-2.28964 3.25619,-2.75179 3.96083,-5.5699 0.70439,-2.81802 1.05665,-5.54802 1.05678,-8.19001 -1.3e-4,-1.76124 -0.35239,-3.87479 -1.05678,-6.34066 -0.52851,-2.46575 -1.40916,-4.84349 -2.64194,-7.13323 -1.23302,-2.28962 -2.73012,-4.22704 -4.4913,-5.81227 -1.58528,-1.76122 -3.5227,-2.64187 -5.81226,-2.64194 l -89.03337,0 c -1.76132,7e-5 -3.87486,-0.44025 -6.34066,-1.32097 -2.28969,-1.0567 -4.57937,-2.2896 -6.86904,-3.69872 -2.11356,-1.58508 -3.96291,-3.34637 -5.54807,-5.28388 -1.40904,-1.93733 -2.11356,-3.96282 -2.11355,-6.07646 l 0,-47.026516 2.90613,-6.07647 31.17489,-30.910689 5.81227,-2.90613 c 0.35221,1.8e-4 2.64189,1.8e-4 6.86904,0 4.22705,-0.17595 9.95125,-0.26402 17.17261,-0.2642 7.39735,-0.17595 15.05897,-0.26401 22.98487,-0.26419 8.10185,-0.17595 16.11573,-0.26402 24.04165,-0.2642 7.9257,-0.17594 14.53054,-0.26401 19.81455,-0.26419 l 0.79258,0 c 1.58503,1.8e-4 3.61052,0.4405 6.07646,1.32097 2.46567,0.7047 4.22696,1.58534 5.28388,2.64194 l 29.85392,30.118109 c 0.88047,0.70467 1.23273,1.58531 1.05678,2.64194 -1.8e-4,0.88079 -1.8e-4,1.76144 0,2.64194 -1.8e-4,7.04531 -3.52276,10.56789 -10.56776,10.56776 -0.88081,1.3e-4 -1.84952,0.0882 -2.90613,0.264196 -0.88081,1.2e-4 -1.67339,-0.440196 -2.37775,-1.320966 -0.70468,-0.52826 -1.84952,-1.49697 -3.43452,-2.90614 -1.58532,-1.58503 -3.34661,-3.25825 -5.28388,-5.01968 -1.76144,-1.76116 -3.43467,-3.34632 -5.01969,-4.7555 -1.58531,-1.58501 -2.73014,-2.64179 -3.43452,-3.17032 -0.52853,-0.52824 -1.40917,-1.1447 -2.64194,-1.84936 -1.23304,-0.8805 -2.28982,-1.32082 -3.17033,-1.32097 l -92.99627,0 c -1.23295,1.5e-4 -2.64198,0.52854 -4.22711,1.58516 -1.40907,0.8808 -2.8181,2.02564 -4.2271,3.43452 -1.23294,1.23305 -2.28971,2.64209 -3.17033,4.22711 -0.88068,1.40917 -6.32096,2.73014 -6.32093,3.96291 l 1.57893,17.180786 c -3e-5,1.76141 4.03745,4.3071 5.27039,6.06828 1.409,1.7614 2.99416,3.34656 4.75549,4.75549 1.93738,1.23301 3.8748,2.28979 5.81227,3.17033 3.37192,-0.99476 5.30011,-1.58706 6.86385,-1.55516 l 86.40492,0.7844 8.18171,5.52625 30.9107,30.91069 c 2.11337,2.11362 3.25821,4.84362 3.43452,8.19002 0.35208,3.17038 0.52821,6.07651 0.52839,8.7184 -1.8e-4,2.81812 -0.17631,5.90038 -0.52839,9.24679 -0.17631,3.17036 -1.32115,5.8123 -3.43452,7.92581 l -30.9107,30.9107 c -1.23305,1.23291 -3.17047,2.20162 -5.81226,2.90613 -2.46595,0.70452 -4.5795,1.05678 -6.34066,1.05678 l -84.80626,0 c -1.58521,0 -3.69876,-0.35226 -6.34066,-1.05678 -2.46585,-0.70451 -4.3152,-1.67322 -5.54807,-2.90613 l -30.11811,-30.11811 c -0.70453,-0.70449 -1.05679,-1.49707 -1.05678,-2.37775 l 0,-2.90613"
             style="fill:url(#linearGradient3930);fill-opacity:1"
             id="path3914"
             inkscape:connector-curvature="0"
             sodipodi:nodetypes="cccccccccccsccccccccccccscccccccccccccccccccccccccccccccccccccccccccssccccc" />
          <path
             d="m 581.11929,196.72288 -2.90614,-6.07646 0,-121.793388 c 0,-3.346295 1.4971,-6.164355 4.4913,-8.454205 2.99419,-2.46564 4.27787,-5.790271 7.27209,-5.790451 2.11353,1.8e-4 5.76146,2.708361 7.52277,3.941091 1.9374,1.05695 3.52256,2.46598 4.75549,4.2271 1.40901,1.76146 -0.42893,4.483279 0.27561,6.596673 0.88062,2.113708 -0.25799,3.616268 -0.25796,5.553526 l 1.1842,36.616754 6.72397,8.03473 16.90842,17.96519 c 1.05672,1.05686 0.31492,3.77869 1.19562,6.59666 1.05672,2.81816 -0.52014,4.93171 -0.52008,6.34066 l -0.26316,33.34571 c -6e-5,1.05682 4.82585,1.80946 5.53042,3.04232 0.70446,1.05682 1.19038,1.72139 2.24721,2.77813 1.05672,1.05681 1.06087,1.15307 2.11771,1.85755 1.23284,0.70455 1.76329,0.53387 2.64401,0.53384 1.58509,3e-5 1.94151,0.77897 3.17448,-0.27784 1.40896,-1.23287 2.29064,-1.59603 3.17136,-3.18123 1.0567,-1.58512 2.50717,-0.51295 3.03564,-2.27429 0.70444,-1.76124 3.29353,-1.55881 3.2936,-2.79176 l 0,-114.660158 c -7e-5,-1.40887 0.44025,-2.817905 1.32097,-4.227105 1.0567,-1.58499 2.2896,-2.90596 3.69872,-3.96291 1.40895,-1.23273 1.41742,-4.235172 3.00267,-4.939862 1.58507,-0.70435 4.38472,-0.871715 5.79384,-0.871895 2.11346,1.8e-4 4.23696,2.465477 5.99835,3.698207 1.76119,1.05695 3.25829,2.46598 4.4913,4.2271 1.40893,1.76146 1.2815,3.568147 1.98613,5.681542 0.88054,2.113711 -0.25808,4.139199 -0.25797,6.076457 l 1.1842,111.514374 c -1.57904,-2.3931 2.80862,2.62834 3.68938,4.21347 1.05666,1.40907 1.4545,-0.0181 1.983,0.68639 2.4657,3.34649 5.28377,2.14905 8.45421,3.20579 3.34633,1.05681 5.99243,0.93153 10.04352,0.9315 2.64181,3e-5 3.31008,1.1285 5.95215,0.24783 2.81793,-0.88062 4.62585,-0.93692 6.73955,-2.52212 2.1134,-1.58513 5.45363,-1.82302 6.86281,-4.11274 1.40889,-2.46576 3.82391,-2.0155 3.82407,-5.18587 l 0,-114.660158 c -1.6e-4,-1.40887 0.44017,-2.817905 1.32097,-4.227105 1.05662,-1.58499 2.28952,-2.90596 3.69871,-3.96291 1.40888,-1.23273 2.90598,-2.20144 4.4913,-2.90613 1.585,-0.70435 3.0821,-2.886865 4.4913,-2.887045 2.28951,1.8e-4 4.31499,2.446895 6.07646,3.679625 1.76112,1.05695 3.25821,2.46598 4.4913,4.2271 1.23272,1.58533 2.20143,3.43469 2.90613,5.548085 0.70434,2.113708 -0.0599,4.597025 -0.0597,6.710413 l -0.37215,109.719775 c -1.8e-4,1.76134 -0.35243,3.5932 -1.05677,6.23509 -0.7047,2.46585 -0.18478,4.50009 -1.4175,5.73295 l -32.02718,30.54093 c -1.23305,1.23291 -2.05399,2.57139 -4.69579,3.2759 -2.46594,0.70452 -4.57983,1.0914 -6.34065,1.05678 l -84.62019,-1.66396 c -1.5849,-0.0312 -3.88484,1.3117 -6.52673,0.60718 -2.46585,-0.70451 -4.31521,-1.67322 -5.54807,-2.90613 l -31.17489,-30.9107"
             style="fill:url(#linearGradient3932);fill-opacity:1"
             id="path3916"
             inkscape:connector-curvature="0"
             sodipodi:nodetypes="ccsccccccccccccccccccccccccccccccccccccccccccccccccccccssccc" />
        </g>
        <text
           transform="scale(1.4075123,0.71047336)"
           sodipodi:linespacing="125%"
           id="text5531"
           y="239.68442"
           x="25.895777"
           style="font-size:234.50700378px;font-style:normal;font-variant:normal;font-weight:normal;font-stretch:normal;line-height:125%;letter-spacing:0px;word-spacing:0px;fill:#000000;fill-opacity:1;stroke:none;font-family:Chintzy CPU Shadow BRK;-inkscape-font-specification:Chintzy CPU Shadow BRK"
           xml:space="preserve"><tspan
             y="239.68442"
             x="25.895777"
             id="tspan5533"
             sodipodi:role="line"
             style="fill-opacity:1">ALSW</tspan></text>
      </g>
    </g>
    <g
       id="layer1-9"
       inkscape:label="Layer 1"
       transform="translate(-556.66002,-11.963043)">
      <path
         inkscape:export-ydpi="90"
         inkscape:export-xdpi="90"
         inkscape:export-filename="/home/chepecarlos/Documentos/Uno.png"
         sodipodi:nodetypes="cccccczzcsccszcccssscsczcssc"
         inkscape:connector-curvature="0"
         inkscape:original-d="m 745.30729,450.05872 c -30.42342,0.36936 -64.55202,32.29906 -67.08586,34.58722 -5.97147,10.2322 -25.5593,14.29252 -34.62356,22.76432 -10.32298,10.32298 -46.58037,36.8421 -49.30839,50.48225 -9.85706,31.88544 -28.67497,59.67362 -25.25382,98.48988 2.0224,18.20155 0.51394,37.85412 13.8896,54.29569 15.75962,20.6086 63.53771,60.98176 73.74114,73.4886 10.20342,12.50684 23.40185,47.34816 39.90102,69.44799 16.49916,22.09983 -0.075,9.06402 -6.81853,35.1028 29.01313,-4.71304 33.83385,-8.20055 41.66879,-14.64721 11.57934,-9.52758 77.85455,-64.29028 90.40866,-89.3985 13.56902,-11.64544 9.7268,-24.53065 16.41498,-37.88072 10.1347,-20.2694 14.36343,-48.40139 11.61675,-72.22591 -2.48248,-21.53282 -10.20293,-37.51321 -17.17259,-66.41753 -6.96967,-28.90432 -27.64459,-56.64267 -37.4177,-50.69364 22.50452,12.51112 27.48369,-14.45906 41.46611,-18.7828 13.98243,-4.32374 40.37416,7.5971 47.31528,6.58393 -1.56394,-4.6918 -33.46575,-18.21525 -35.70633,-21.20269 -20.12483,-26.8331 -33.63189,-1.04283 -62.59882,3.785 -9.16136,1.52689 -16.75203,9.21918 -26.44254,9.21918 -5.00567,0 -14.60521,3.11069 -23.42785,12.19362 3.15687,1.05229 38.16509,-29.0471 46.83648,-37.90791 5.85926,-5.98724 26.53853,-11.61738 46.53174,-19.02304 -24.21122,-6.10122 -66.68848,-12.69395 -84.36275,5.54623 -17.67428,18.24018 -43.85149,21.57259 -58.96161,31.11513 4.60019,-18.65677 7.80677,-18.60374 9.38724,-21.76468 2.74275,-5.48551 24.41533,-30.51691 27.27412,-32.661 7.92612,-5.9446 17.02466,-14.98992 22.72844,-24.49621 z"
         inkscape:path-effect="#path-effect3111"
         id="path3109"
         d="m 745.30729,450.05872 -67.08586,34.58722 c -12.1211,6.65291 -23.71111,14.27311 -34.62356,22.76432 -18.62173,14.48995 -35.26049,31.52482 -49.30839,50.48225 -17.90586,29.36535 -26.82029,64.13162 -25.25382,98.48988 0.85818,18.82293 4.88984,37.74143 13.8896,54.29569 8.33791,15.33685 20.64004,28.15776 33.74281,39.69279 13.10277,11.53503 27.14607,21.9823 39.99833,33.79581 10.07202,9.25798 19.44478,19.4102 26.67427,31.02443 7.22948,11.61422 12.26777,24.77673 13.22675,38.42356 0.84518,12.02745 -1.53216,24.26637 -6.81853,35.1028 14.3804,-3.29856 28.38738,-8.22223 41.66879,-14.64721 38.84987,-18.79392 71.17942,-50.76225 90.40866,-89.3985 6.45337,-12.17057 11.94759,-24.84956 16.41498,-37.88072 7.95395,-23.2013 12.65161,-47.72092 11.61675,-72.22591 -0.97177,-23.01095 -7.02394,-45.74259 -17.17259,-66.41753 -9.30449,-18.95521 -22.04565,-36.21699 -37.4177,-50.69364 11.75175,-9.90097 26.27322,-16.47872 41.46611,-18.7828 15.96466,-2.42112 32.61812,-0.10379 47.31528,6.58393 -9.62652,-10.1963 -22.14629,-17.63063 -35.70633,-21.20269 -20.46157,-5.3901 -42.23814,-1.97449 -62.59882,3.785 -8.98837,2.54257 -17.85731,5.53824 -26.44254,9.21918 -8.09892,3.47243 -15.93738,7.55216 -23.42785,12.19362 13.46454,-15.01834 29.34183,-27.8689 46.83648,-37.90791 14.57665,-8.36456 30.27001,-14.7803 46.53174,-19.02304 -28.0354,-4.79816 -57.19682,-2.88101 -84.36275,5.54623 -21.34612,6.62186 -41.44836,17.23018 -58.96161,31.11513 2.13568,-7.63154 5.30245,-14.97381 9.38724,-21.76468 7.32737,-12.18158 17.44838,-22.38793 27.27412,-32.661 7.69938,-8.0499 15.27669,-16.21656 22.72844,-24.49621"
         style="fill:#e3d7f4;fill-opacity:1;stroke:#000000;stroke-width:3;stroke-linecap:butt;stroke-linejoin:miter;stroke-miterlimit:4;stroke-opacity:1;stroke-dasharray:none" />
      <path
         inkscape:export-ydpi="90"
         inkscape:export-xdpi="90"
         inkscape:export-filename="/home/chepecarlos/Documentos/Uno.png"
         sodipodi:nodetypes="ccsssc"
         inkscape:connector-curvature="0"
         id="path3114"
         d="m 648.33264,707.64763 156.57364,20.70812 c 0,0 -3.03357,19.01064 -17.82653,33.69204 -14.62682,14.5165 -41.47928,22.60275 -66.0825,22.96942 -16.27821,0.2426 -37.90808,-16.79413 -51.05877,-32.62147 -14.89609,-17.92799 -21.60584,-44.74811 -21.60584,-44.74811 z"
         style="fill:#000000;stroke:#000000;stroke-width:1px;stroke-linecap:butt;stroke-linejoin:miter;stroke-opacity:1" />
      <path
         inkscape:export-ydpi="90"
         inkscape:export-xdpi="90"
         inkscape:export-filename="/home/chepecarlos/Documentos/Uno.png"
         sodipodi:nodetypes="zsscssz"
         inkscape:connector-curvature="0"
         id="path3120"
         d="m 681.41513,756.19808 c 4.13531,-4.13531 18.08093,-13.24894 33.71384,-12.37437 18.05648,1.01015 48.86613,15.7205 48.86613,21.52888 0,5.80838 -3.15672,7.07107 -3.15672,7.07107 0,0 -23.64785,9.13443 -40.86581,9.2607 -6.86372,0.0503 -17.14204,-4.98739 -22.44602,-7.93385 -7.13826,-3.96543 -20.24674,-13.41712 -16.11142,-17.55243 z"
         style="fill:#ff0000;stroke:#000000;stroke-width:1px;stroke-linecap:butt;stroke-linejoin:miter;stroke-opacity:1" />
      <path
         inkscape:export-ydpi="90"
         inkscape:export-xdpi="90"
         inkscape:export-filename="/home/chepecarlos/Documentos/Uno.png"
         sodipodi:nodetypes="cccsscsssc"
         inkscape:connector-curvature="0"
         id="path3269"
         d="m 646.88935,775.08368 89.10714,35.2232 92.67858,-41.60714 c 0,0 -13.30029,29.62124 -26.0482,45.57085 -13.82265,17.29427 -32.40018,37.94662 -60.50474,53.37235 -19.32679,10.60788 -31.04383,15.62332 -51.081,20.25323 3.50166,-8.51255 6.25898,-17.85709 6.45461,-26.06123 0.13796,-5.78569 -0.25623,-10.68025 -1.18462,-15.43258 -2.68613,-13.75003 -8.04067,-26.60315 -15.85872,-37.20572 -15.09553,-20.47204 -34.04924,-33.14059 -33.56305,-34.11296 z"
         style="fill:#000000;stroke:#000000;stroke-width:1px;stroke-linecap:butt;stroke-linejoin:miter;stroke-opacity:1" />
      <path
         inkscape:export-ydpi="90"
         inkscape:export-xdpi="90"
         inkscape:export-filename="/home/chepecarlos/Documentos/Uno.png"
         sodipodi:nodetypes="ccccc"
         inkscape:connector-curvature="0"
         id="path3277"
         d="m 703.4965,797.62831 c 13.77763,16.95463 30.38618,40.66057 33.57143,61.96429 16.30159,-18.27777 31.14008,-46.40786 40.69448,-67.88066 l -42.04012,18.69769 z"
         style="fill:#ffffff;stroke:#000000;stroke-width:1px;stroke-linecap:butt;stroke-linejoin:miter;stroke-opacity:1" />
      <path
         inkscape:export-ydpi="90"
         inkscape:export-xdpi="90"
         inkscape:export-filename="/home/chepecarlos/Documentos/Uno.png"
         sodipodi:nodetypes="ccccccccccc"
         inkscape:connector-curvature="0"
         id="path3279"
         d="m 739.21078,809.05688 c 13.03572,15.53572 11.25,15.35715 11.25,15.35715 l -6.25,6.78571 3.03572,16.25 -9.64286,11.78572 -6.42857,-20.35715 7.39285,-8.21428 -5.60714,-3.92858 0,-16.96428 2.67857,0.71429 z"
         style="fill:#800080;stroke:#000000;stroke-width:1px;stroke-linecap:butt;stroke-linejoin:miter;stroke-opacity:1" />
      <path
         inkscape:export-ydpi="90"
         inkscape:export-xdpi="90"
         inkscape:export-filename="/home/chepecarlos/Documentos/Uno.png"
         sodipodi:nodetypes="cczszc"
         inkscape:connector-curvature="0"
         id="path3005"
         d="m 624.21078,681.55688 88.21429,7.85715 c 0,0 13.74999,-50 4.28571,-62.5 -9.46428,-12.5 -9.46428,-22.5 -41.96428,-25 -32.5,-2.5 -34.21007,12.01278 -43.75001,29.99999 -9.53994,17.98722 -6.78571,49.64286 -6.78571,49.64286 z"
         style="fill:#ffffff;stroke:none" />
      <path
         inkscape:export-ydpi="90"
         inkscape:export-xdpi="90"
         inkscape:export-filename="/home/chepecarlos/Documentos/Uno.png"
         sodipodi:nodetypes="ccsszc"
         inkscape:connector-curvature="0"
         id="path3007"
         d="m 737.78221,691.55689 80,11.42857 c 0,0 10.57341,-55.44917 -1.07143,-71.42858 -12.57623,-17.2575 -9.28571,-18.21428 -26.07143,-22.49999 -15.28863,-3.90348 -29.28579,-0.58169 -38.92857,13.21428 -9.64278,13.79597 -13.92857,69.28572 -13.92857,69.28572 z"
         style="fill:#ffffff;stroke:none" />
      <g
         id="g3858"
         inkscape:export-filename="/home/chepecarlos/Documentos/Uno.png"
         inkscape:export-xdpi="90"
         inkscape:export-ydpi="90"
         style="stroke:#000000;display:inline"
         transform="matrix(1.9881432,0.2287815,-0.2287815,1.9881432,61.78736,-140.79382)">
        <path
           style="fill:#000080;fill-opacity:1;stroke:#000000;stroke-width:1px;stroke-linecap:butt;stroke-linejoin:miter;stroke-opacity:1"
           d="m 404.70711,337.97641 c 9.84136,1.97228 14.77915,12.14002 13.52747,22.09871 -0.72978,5.80626 -4.86162,13.50587 -10.64604,14.39232 -5.98419,0.91707 -13.60885,-0.59535 -17.59365,-6.82039 -2.95209,-4.61173 -1.67431,-15.67525 0.74934,-21.24322 2.48886,-5.71777 7.84848,-9.65279 13.96288,-8.42742 z"
           id="path3965"
           inkscape:connector-curvature="0"
           sodipodi:nodetypes="ssssss" />
        <path
           sodipodi:nodetypes="ssssss"
           inkscape:connector-curvature="0"
           id="path3967"
           d="m 403.32289,347.42882 c 5.22487,1.04708 7.84638,6.44525 7.18186,11.7324 -0.38743,3.0826 -1.58562,7.20359 -4.65664,7.67421 -3.17705,0.48688 -8.22049,-0.34925 -10.33607,-3.65419 -1.5673,-2.44841 -0.88891,-8.32214 0.39783,-11.27822 1.32134,-3.03562 4.16682,-5.12477 7.41302,-4.4742 z"
           style="opacity:0.26666667;fill:#000000;fill-opacity:1;stroke:#000000" />
        <g
           style="stroke:none"
           id="g3853">
          <path
             style="opacity:0.78823529;fill:#ffffff;fill-opacity:1;stroke:none;filter:url(#filter3849-2)"
             d="m 413.73878,353.57929 c 2.05975,3.06711 -17.98702,-6.64167 -17.65806,-9.85939 5.29519,-8.60625 19.37355,0.27447 17.65806,9.85939 z"
             id="path3969"
             inkscape:connector-curvature="0"
             sodipodi:nodetypes="ccc" />
          <path
             inkscape:connector-curvature="0"
             id="path3971"
             d="m 399.33449,350.71815 c -2.01423,3.98433 -6.54766,-1.34875 -5.65685,-2.82843 0.93052,-2.30781 6.27759,0.0119 5.65685,2.82843 z"
             style="opacity:0.58823529;fill:#ffffff;fill-opacity:1;stroke:none;filter:url(#filter3845-6)"
             sodipodi:nodetypes="ccc" />
          <path
             style="opacity:0.58823529;fill:#ffffff;fill-opacity:1;stroke:none;filter:url(#filter3841-9)"
             d="m 391.60956,358.4608 c -8.4979,7.87769 16.65736,24.70563 22.04397,5.99448 0.44574,-1.54833 -1.99278,-1.8868 -3.69955,-0.46921 -6.08769,5.05626 -11.10431,8.09035 -16.04563,-5.03379 -0.27058,-0.71865 -1.6885,-1.05723 -2.29879,-0.49148 z"
             id="path3973"
             inkscape:connector-curvature="0"
             sodipodi:nodetypes="sssss" />
        </g>
        <path
           style="fill:#000000;fill-opacity:1;stroke:#000000"
           d="m 385.93257,339.81325 c 10.65348,-27.71802 45.87105,-2.28751 38.57228,18.11031 -1.13556,-18.11737 -14.29357,-35.01115 -38.57228,-18.11031 z"
           id="path3975"
           inkscape:connector-curvature="0"
           sodipodi:nodetypes="ccc" />
        <path
           sodipodi:nodetypes="ccc"
           inkscape:connector-curvature="0"
           id="path4154"
           d="m 383.16106,374.1609 c 12.43265,2.54363 24.20768,0.86519 39.42401,1.90812 l 0.65992,-4.67166"
           style="fill:none;stroke:#000000;stroke-width:1.15204155px;stroke-linecap:butt;stroke-linejoin:miter;stroke-opacity:1" />
      </g>
      <g
         transform="matrix(-1.9687291,-0.35938864,-0.35938864,1.9687291,1590.0409,92.917729)"
         style="display:inline"
         inkscape:export-ydpi="90"
         inkscape:export-xdpi="90"
         inkscape:export-filename="/home/chepecarlos/Documentos/Uno.png"
         id="g6512">
        <path
           sodipodi:nodetypes="ssssss"
           inkscape:connector-curvature="0"
           id="path6516"
           d="m 401.63226,337.4309 c -10.00112,0.84847 -16.05538,10.39367 -15.93614,20.43 0.0695,5.85153 3.30558,13.96843 8.95292,15.50233 5.84238,1.58688 13.58905,0.94503 18.25124,-4.79028 3.45392,-4.24891 3.43349,-15.38596 1.65402,-21.19198 -1.82735,-5.96223 -6.70839,-10.47723 -12.92204,-9.95007 z"
           style="fill:#000080;fill-opacity:1;stroke:#000000;stroke-width:1px;stroke-linecap:butt;stroke-linejoin:miter;stroke-opacity:1" />
        <path
           style="opacity:0.26666667;fill:#000000;fill-opacity:1;stroke:none"
           d="m 401.94035,346.97915 c -5.30969,0.45044 -8.52394,5.5181 -8.46064,10.84647 0.0369,3.10663 0.76212,7.33656 3.76036,8.15092 3.10176,0.84248 8.20736,0.58115 10.68257,-2.46378 1.83373,-2.25579 1.82288,-8.16855 0.87814,-11.25101 -0.97014,-3.16541 -3.56153,-5.56249 -6.86043,-5.2826 z"
           id="path6518"
           inkscape:connector-curvature="0"
           sodipodi:nodetypes="ssssss" />
        <g
           transform="matrix(-0.99360522,-0.11290996,-0.11290996,0.99360522,841.91226,47.311239)"
           id="g6520">
          <path
             sodipodi:nodetypes="ccc"
             inkscape:connector-curvature="0"
             id="path6522"
             d="m 413.73878,353.57929 c 2.05975,3.06711 -17.98702,-6.64167 -17.65806,-9.85939 5.29519,-8.60625 19.37355,0.27447 17.65806,9.85939 z"
             style="opacity:0.78823529;fill:#ffffff;fill-opacity:1;stroke:none;filter:url(#filter3849-2)" />
          <path
             sodipodi:nodetypes="ccc"
             style="opacity:0.58823529;fill:#ffffff;fill-opacity:1;stroke:none;filter:url(#filter3845-6)"
             d="m 399.33449,350.71815 c -2.01423,3.98433 -6.54766,-1.34875 -5.65685,-2.82843 0.93052,-2.30781 6.27759,0.0119 5.65685,2.82843 z"
             id="path6524"
             inkscape:connector-curvature="0" />
          <path
             sodipodi:nodetypes="sssss"
             inkscape:connector-curvature="0"
             id="path6526"
             d="m 391.60956,358.4608 c -8.4979,7.87769 16.65736,24.70563 22.04397,5.99448 0.44574,-1.54833 -1.99278,-1.8868 -3.69955,-0.46921 -6.08769,5.05626 -11.10431,8.09035 -16.04563,-5.03379 -0.27058,-0.71865 -1.6885,-1.05723 -2.29879,-0.49148 z"
             style="opacity:0.58823529;fill:#ffffff;fill-opacity:1;stroke:none;filter:url(#filter3841-9)" />
        </g>
        <path
           sodipodi:nodetypes="ccc"
           inkscape:connector-curvature="0"
           id="path6528"
           d="m 380.76347,341.38974 c 13.17933,-30.28331 50.48763,-3.67193 43.74138,16.53382 -1.98251,-18.24315 -19.00254,-34.91263 -43.74138,-16.53382 z"
           style="fill:#000000;fill-opacity:1;stroke:none" />
        <path
           style="fill:none;stroke:#000000;stroke-width:1.19895446px;stroke-linecap:butt;stroke-linejoin:miter;stroke-opacity:1"
           d="m 376.2729,371.43568 c 14.86015,3.27051 28.58941,2.58814 46.6021,4.6765 l 0.38322,-4.27132"
           id="path6530"
           inkscape:connector-curvature="0"
           sodipodi:nodetypes="ccc" />
      </g>
    </g>
    <text
       xml:space="preserve"
       style="font-size:146.1547699px;font-style:normal;font-variant:normal;font-weight:normal;font-stretch:normal;line-height:125%;letter-spacing:0px;word-spacing:0px;fill:#00979c;fill-opacity:1;stroke:none;font-family:Clicker Script;-inkscape-font-specification:Clicker Script"
       x="419.54575"
       y="867.37476"
       id="text3961"
       sodipodi:linespacing="125%"
       transform="scale(0.79678012,1.2550514)"><tspan
         sodipodi:role="line"
         id="tspan3963"
         x="419.54575"
         y="867.37476"
         style="fill:#00979c;fill-opacity:1">Anime &amp; Linux</tspan></text>
    <text
       xml:space="preserve"
       style="font-size:146.66395569px;font-style:normal;font-variant:normal;font-weight:normal;font-stretch:normal;line-height:125%;letter-spacing:0px;word-spacing:0px;fill:#00979c;fill-opacity:1;font-family:Clicker Script;-inkscape-font-specification:Clicker Script"
       x="374.61099"
       y="1113.2948"
       id="text3993"
       sodipodi:linespacing="125%"
       transform="scale(0.89235423,1.1206312)"><tspan
         sodipodi:role="line"
         id="tspan3995"
         x="374.61099"
         y="1113.2948"
         style="fill:#00979c;fill-opacity:1">Web Developer</tspan></text>
    <flowRoot
       xml:space="preserve"
       id="flowRoot5455"
       style="fill:black;stroke:none;stroke-opacity:1;stroke-width:1px;stroke-linejoin:miter;stroke-linecap:butt;fill-opacity:1;font-family:Sans;font-style:normal;font-weight:normal;font-size:40px;line-height:125%;letter-spacing:0px;word-spacing:0px"><flowRegion
         id="flowRegion5457"><rect
           id="rect5459"
           width="104.28571"
           height="45.714287"
           x="384.28571"
           y="489.80878" /></flowRegion><flowPara
         id="flowPara5461" /></flowRoot>    <text
       xml:space="preserve"
       style="font-size:179.70771790000000578px;font-style:normal;font-variant:normal;font-weight:normal;font-stretch:normal;line-height:125%;letter-spacing:0px;word-spacing:0px;fill:#00979c;fill-opacity:1;stroke:none;font-family:Clicker Script;-inkscape-font-specification:Clicker Script"
       x="427.91525"
       y="1211.4663"
       id="text5479"
       sodipodi:linespacing="125%"
       transform="scale(0.86251536,1.1593996)"><tspan
         sodipodi:role="line"
         id="tspan5481"
         x="427.91525"
         y="1211.4663"
         style="fill:#00979c;fill-opacity:1">Anime Shop</tspan></text>
    <text
       sodipodi:linespacing="125%"
       id="text5491"
       y="809.51984"
       x="337.60626"
       style="font-size:212.87803650000000744px;font-style:normal;font-variant:normal;font-weight:normal;font-stretch:normal;line-height:125%;letter-spacing:0px;word-spacing:0px;fill:#00979c;fill-opacity:1;stroke:none;font-family:Clicker Script;-inkscape-font-specification:Clicker Script"
       xml:space="preserve"
       transform="scale(0.99016439,1.0099333)"><tspan
         style="fill:#00979c;fill-opacity:1;stroke:none"
         y="809.51984"
         x="337.60626"
         id="tspan5493"
         sodipodi:role="line">E-Textil</tspan></text>
    <text
       xml:space="preserve"
       style="font-size:217.30841064000000529px;font-style:normal;font-variant:normal;font-weight:normal;font-stretch:normal;line-height:125%;letter-spacing:0px;word-spacing:0px;fill:#00979c;fill-opacity:1;stroke:none;font-family:Clicker Script;-inkscape-font-specification:Clicker Script"
       x="253.55734"
       y="2234.5581"
       id="text5559"
       sodipodi:linespacing="125%"
       transform="scale(1.3859927,0.72150451)"><tspan
         sodipodi:role="line"
         id="tspan5561"
         x="253.55734"
         y="2234.5581"
         style="fill:#00979c;fill-opacity:1">Radio</tspan></text>
    <text
       xml:space="preserve"
       style="font-size:178.87127686000002313px;font-style:normal;font-weight:normal;line-height:125%;letter-spacing:0px;word-spacing:0px;fill:#00979c;fill-opacity:1;stroke:none;font-family:Sans"
       x="408.67947"
       y="1602.5828"
       id="text5571"
       sodipodi:linespacing="125%"
       transform="scale(0.87036405,1.1489445)"><tspan
         sodipodi:role="line"
         id="tspan5573"
         x="408.67947"
         y="1602.5828"
         style="font-style:normal;font-variant:normal;font-weight:normal;font-stretch:normal;fill:#00979c;fill-opacity:1;font-family:Clicker Script;-inkscape-font-specification:Clicker Script">E-Learning</tspan></text>
  </g>
</svg>
