<?xml version="1.0" encoding="UTF-8" standalone="no"?>
<!-- Created with Inkscape (http://www.inkscape.org/) -->

<svg
   xmlns:dc="http://purl.org/dc/elements/1.1/"
   xmlns:cc="http://creativecommons.org/ns#"
   xmlns:rdf="http://www.w3.org/1999/02/22-rdf-syntax-ns#"
   xmlns:svg="http://www.w3.org/2000/svg"
   xmlns="http://www.w3.org/2000/svg"
   xmlns:sodipodi="http://sodipodi.sourceforge.net/DTD/sodipodi-0.dtd"
   xmlns:inkscape="http://www.inkscape.org/namespaces/inkscape"
   width="744.09448819"
   height="1052.3622047"
   id="svg4507"
   version="1.1"
   inkscape:version="0.48.4 r9939"
   sodipodi:docname="Logo Solo Texto.svg">
  <defs
     id="defs4509" />
  <sodipodi:namedview
     id="base"
     pagecolor="#ffffff"
     bordercolor="#666666"
     borderopacity="1.0"
     inkscape:pageopacity="0.0"
     inkscape:pageshadow="2"
     inkscape:zoom="1.4"
     inkscape:cx="307.36585"
     inkscape:cy="828.83745"
     inkscape:document-units="px"
     inkscape:current-layer="layer1"
     showgrid="false"
     inkscape:window-width="1280"
     inkscape:window-height="745"
     inkscape:window-x="-2"
     inkscape:window-y="-3"
     inkscape:window-maximized="1" />
  <metadata
     id="metadata4512">
    <rdf:RDF>
      <cc:Work
         rdf:about="">
        <dc:format>image/svg+xml</dc:format>
        <dc:type
           rdf:resource="http://purl.org/dc/dcmitype/StillImage" />
      </cc:Work>
    </rdf:RDF>
  </metadata>
  <g
     inkscape:label="Layer 1"
     inkscape:groupmode="layer"
     id="layer1">
    <g
       transform="scale(1.0254485,0.97518306)"
       style="font-size:161.79568481px;font-style:normal;font-variant:normal;font-weight:normal;font-stretch:normal;line-height:125%;letter-spacing:0px;word-spacing:0px;fill:#000000;fill-opacity:1;stroke:none;font-family:Chintzy CPU Shadow BRK;-inkscape-font-specification:Chintzy CPU Shadow BRK"
       id="text5531">
      <path
         d="m 122.74328,132.00931 c -0.43147,0.43152 -1.24044,1.2405 -2.42693,2.42693 -1.07865,1.18657 -2.21122,2.427 -3.39771,3.7213 -1.18651,1.29443 -2.31908,2.53486 -3.39771,3.7213 -1.07864,1.0787 -1.83369,1.83374 -2.26514,2.26514 -0.53932,0.53938 -1.13257,1.40229 -1.77975,2.58873 -0.64719,1.18656 -0.97078,2.15733 -0.97078,2.91232 l 0,40.12533 c 0,0.21574 0.26966,0.86293 0.80898,1.94155 0.53932,0.97079 0.97077,1.6719 1.29437,2.10335 2.0494,2.80446 4.31454,4.63814 6.79542,5.50105 2.58871,0.86291 5.50103,1.29437 8.73696,1.29437 3.23589,0 6.14821,-0.43146 8.73697,-1.29437 2.5887,-0.86291 4.90777,-2.69659 6.95721,-5.50105 0.32356,-0.53931 0.91681,-1.67188 1.77976,-3.39771 0.86287,-1.83367 1.29432,-3.18197 1.29436,-4.04489 l 0,-27.18168 c -4e-5,-0.755 0.32356,-1.61791 0.97078,-2.58873 0.64714,-1.07859 1.45612,-2.04937 2.42693,-2.91232 0.97073,-0.97073 1.94151,-1.77971 2.91232,-2.42694 1.0786,-0.64713 1.99544,-0.97072 2.75053,-0.97077 l 46.27357,0 c 1.07854,5e-5 2.21111,0.4315 3.39771,1.29436 1.1864,0.7551 2.26504,1.7798 3.23591,3.07412 0.97067,1.18655 1.72572,2.48091 2.26514,3.8831 0.64708,1.2944 0.97067,2.42697 0.97077,3.39771 l 0,27.82885 c -1e-4,0.97079 0.32349,1.94156 0.97078,2.91233 0.64708,0.97078 1.45605,1.88762 2.42693,2.75052 0.97067,0.75506 1.99537,1.40224 3.07412,1.94155 1.07853,0.43146 2.10323,0.64719 3.07412,0.64718 1.40211,1e-5 2.69648,-0.32358 3.88309,-0.97077 1.18639,-0.75504 2.21109,-1.67188 3.07412,-2.75053 0.97066,-1.18649 1.67177,-2.48085 2.10335,-3.88309 0.53919,-1.40222 0.80885,-2.75052 0.80898,-4.04489 l 0,-33.32992 c -1.3e-4,-1.40218 -0.32372,-2.9662 -0.97078,-4.69207 -0.6473,-1.72577 -1.45628,-3.12799 -2.42693,-4.20669 -0.43158,-0.4314 -1.24056,-1.18644 -2.42694,-2.26514 -1.07875,-1.18644 -2.21132,-2.42687 -3.39771,-3.7213 -1.18661,-1.2943 -2.37311,-2.53473 -3.5595,-3.7213 -1.07875,-1.18643 -1.8338,-1.99541 -2.26514,-2.42693 l -1.61796,-2.75053 0,-27.18168 c -1.1e-4,-0.43135 -0.10797,-1.0246 -0.32359,-1.77975 -0.21583,-0.862808 -0.53943,-1.725717 -0.97078,-2.58873 -0.32369,-0.97067 -0.70121,-1.833579 -1.13257,-2.588731 -0.43155,-0.862803 -0.86301,-1.509985 -1.29436,-1.941548 L 190.05029,74.248246 c -0.64727,-0.754919 -1.7259,-1.509965 -3.23592,-2.26514 -1.4023,-0.754916 -2.5888,-1.132439 -3.5595,-1.13257 l -29.28502,0 c -0.97082,1.31e-4 -2.15732,0.377654 -3.5595,1.13257 -1.40228,0.755175 -2.48091,1.510221 -3.23592,2.26514 l -18.93009,18.930095 c -0.21575,0.215835 -0.48541,0.593358 -0.80898,1.13257 -0.32361,0.539425 -0.6472,1.132675 -0.97078,1.779752 -0.32361,0.539424 -0.6472,1.078742 -0.97077,1.617957 -0.21575,0.539422 -0.32361,0.863013 -0.32359,0.970774 l 0,27.181676 c -2e-5,0.75512 -0.32361,1.83376 -0.97078,3.23591 -0.53933,1.29444 -1.02472,2.26521 -1.45616,2.91233 m -11.48749,18.28291 1.29437,-2.75053 c 0.43144,-0.4314 1.18649,-1.18645 2.26513,-2.26514 1.1865,-1.18644 2.373,-2.42688 3.55951,-3.7213 1.18649,-1.2943 2.31906,-2.53474 3.39771,-3.7213 1.18648,-1.18644 1.99546,-1.99541 2.42693,-2.42694 0.8629,-0.9707 1.67187,-2.42686 2.42694,-4.36848 0.86289,-1.94147 1.29434,-3.45157 1.29437,-4.53028 l 0,-28.152447 22.65139,-22.813192 c 0.21568,-0.215601 0.97073,-0.593124 2.26514,-1.13257 1.29432,-0.647055 2.15723,-0.970646 2.58873,-0.970774 l 26.53449,0 4.0449,1.456161 21.68062,21.680622 c 0.21562,0.215832 0.43135,0.647287 0.64718,1.294366 0.32349,0.539421 0.59315,1.132672 0.80898,1.779752 0.32349,0.647282 0.53922,1.294462 0.64718,1.941552 0.21563,0.53941 0.32349,0.91694 0.32359,1.13257 l 0,27.18167 c -1e-4,0.2158 0.10776,0.59332 0.32359,1.13257 0.32349,0.43153 0.64708,0.97084 0.97078,1.61796 0.32349,0.53938 0.64708,1.0787 0.97077,1.61795 0.32349,0.53939 0.59315,0.91691 0.80898,1.13257 0.43135,0.43153 1.1864,1.2405 2.26514,2.42694 1.07853,1.18656 2.2111,2.427 3.39771,3.7213 1.18639,1.29442 2.31896,2.53486 3.39771,3.7213 1.18638,1.07869 1.99536,1.83374 2.42693,2.26514 0.53921,0.86296 1.02459,1.88767 1.45617,3.07412 0.43133,1.07869 0.64706,2.10339 0.64718,3.07412 l 0,23.13678 c -1.2e-4,0.86293 -0.21585,1.94157 -0.64718,3.23591 -0.43158,1.18653 -0.91696,2.1573 -1.45617,2.91233 -0.53943,0.53933 -1.29448,1.34831 -2.26513,2.42693 -0.97089,1.07865 -1.56414,1.61797 -1.77976,1.61796 l -1.94155,0 c -0.10797,1e-5 -0.3237,-0.16178 -0.64718,-0.48539 -0.3237,-0.32358 -0.70122,-0.7011 -1.13257,-1.13257 -0.43156,-0.43144 -0.86302,-0.86289 -1.29436,-1.29436 -0.43157,-0.43144 -0.80909,-0.80896 -1.13257,-1.13257 -0.21584,-0.32358 -0.53943,-0.80896 -0.97078,-1.45617 -0.43156,-0.75502 -0.64729,-1.18648 -0.64718,-1.29436 l 0,-27.18168 c -1.1e-4,-1.40218 -0.37763,-2.91227 -1.13257,-4.53027 -0.75515,-1.72577 -1.72592,-3.28979 -2.91232,-4.69208 -1.1866,-1.40217 -2.5349,-2.58867 -4.04489,-3.5595 -1.51019,-0.97072 -3.02029,-1.4561 -4.53028,-1.45617 l -46.27357,0 c -0.97082,7e-5 -2.15732,0.37759 -3.5595,1.13257 -1.40228,0.64725 -2.69664,1.51016 -3.8831,2.58873 -1.18654,1.0787 -2.21125,2.2652 -3.07412,3.55951 -0.86295,1.29442 -1.2944,2.48092 -1.29436,3.5595 l 0,27.18168 c -4e-5,1.18652 -0.32363,2.48089 -0.97078,3.8831 -0.64721,1.40224 -1.51012,2.75054 -2.58873,4.04489 -0.9708,1.18652 -2.10337,2.21122 -3.39771,3.07412 -1.18653,0.86292 -2.37303,1.29437 -3.5595,1.29436 l -10.19313,0 c -0.97079,1e-5 -2.04943,-0.26965 -3.23592,-0.80898 -1.07864,-0.64717 -2.15728,-1.40221 -3.23591,-2.26514 -1.07864,-0.86289 -1.99549,-1.83366 -2.75053,-2.91232 -0.64718,-1.07862 -0.97077,-2.04939 -0.97077,-2.91232 l 0,-29.9322 m 84.29555,-44.49382 c -9e-5,-1.72572 -0.26975,-3.61333 -0.80898,-5.66284 -0.43154,-2.049314 -1.13265,-3.99086 -2.10334,-5.824649 -0.97086,-1.833576 -2.26522,-3.343668 -3.8831,-4.53028 -1.51017,-1.294252 -3.34385,-1.941434 -5.50105,-1.941548 l -29.28502,0 c -1.07868,1.14e-4 -2.26518,0.377637 -3.5595,1.13257 -1.29441,0.647294 -2.53484,1.510204 -3.72131,2.588731 -1.18654,0.970883 -2.21124,2.103451 -3.07411,3.397709 -0.75509,1.294471 -1.13261,2.534903 -1.13257,3.721301 l 0,14.238016 c -4e-5,1.18659 0.37748,2.42703 1.13257,3.72131 0.86287,1.18658 1.88757,2.31915 3.07411,3.3977 1.18647,1.07872 2.4269,1.99556 3.72131,2.75053 1.29432,0.64726 2.48082,0.97085 3.5595,0.97078 l 29.28502,0 c 2.1572,7e-5 3.99088,-0.59318 5.50105,-1.77976 1.61788,-1.29428 2.91224,-2.85831 3.8831,-4.69207 0.97069,-1.8336 1.6718,-3.77515 2.10334,-5.82465 0.53923,-2.04932 0.80889,-3.93693 0.80898,-5.66285 m -50.48025,4.36849 c -4e-5,-0.97068 0.21569,-2.10325 0.64718,-3.39771 0.53928,-1.29427 1.18646,-2.48077 1.94155,-3.55951 0.86287,-1.07854 1.83364,-1.99538 2.91232,-2.75052 1.07859,-0.754948 2.21116,-1.132471 3.39771,-1.132573 l 29.28502,0 c 1.29429,1.02e-4 2.48079,0.377625 3.5595,1.132573 1.07856,0.75514 1.9954,1.72592 2.75053,2.91232 0.86283,1.07873 1.51001,2.26523 1.94155,3.5595 0.43137,1.1866 0.6471,2.31917 0.64718,3.39771 -8e-5,1.07873 -0.32367,2.26523 -0.97077,3.55951 -0.5394,1.18659 -1.24052,2.31916 -2.10335,3.39771 -0.86299,1.07872 -1.88769,1.99556 -3.07411,2.75052 -1.18658,0.64727 -2.31915,0.97086 -3.39771,0.97078 l -27.18168,0 c -1.29441,8e-5 -2.58878,-0.32351 -3.88309,-0.97078 -1.18655,-0.75496 -2.26519,-1.61787 -3.23592,-2.58873 -0.97081,-1.07855 -1.77979,-2.26505 -2.42693,-3.5595 -0.53936,-1.29428 -0.80902,-2.53471 -0.80898,-3.7213"
         style="font-family:'Chintzy CPU Shadow (BRK)';-inkscape-font-specification:'Chintzy CPU Shadow (BRK)'"
         id="path4544" />
      <path
         d="m 234.79943,176.82671 21.03344,21.03344 c 0.86289,0.86291 2.10332,1.56403 3.7213,2.10334 1.72579,0.43146 3.18195,0.64719 4.36849,0.64719 l 74.7496,0 c 0.75494,0 1.83358,-0.1618 3.23592,-0.48539 1.40211,-0.43146 2.75041,-0.97077 4.04489,-1.61796 1.40211,-0.75504 2.58861,-1.56402 3.5595,-2.42693 0.97066,-0.97077 1.45605,-1.94154 1.45617,-2.91233 l 0,-13.59083 c -1.2e-4,-0.97075 -0.64731,-1.8876 -1.94155,-2.75053 -1.18662,-0.97075 -2.15739,-1.67186 -2.91233,-2.10334 -0.64729,-0.32357 -1.56413,-0.75502 -2.75052,-1.29437 -1.18661,-0.64715 -1.8338,-0.97074 -1.94155,-0.97077 l -61.80595,0 c -0.64723,3e-5 -1.56407,-0.32357 -2.75053,-0.97078 -1.07868,-0.75501 -2.21125,-1.61792 -3.39771,-2.58873 -1.18654,-1.0786 -2.21125,-2.10331 -3.07412,-3.07412 -0.86294,-1.0786 -1.2944,-1.94151 -1.29436,-2.58873 l 0,-27.18167 c -4e-5,-1.07857 -0.43149,-2.58867 -1.29437,-4.53028 -0.75508,-1.94148 -1.56406,-3.39764 -2.42693,-4.36849 -0.43149,-0.43138 -1.24047,-1.18642 -2.42694,-2.26513 -1.07867,-1.18643 -2.21123,-2.42686 -3.39771,-3.72131 -1.18653,-1.29428 -2.37303,-2.53471 -3.5595,-3.7213 -1.07866,-1.18641 -1.83371,-1.99539 -2.26514,-2.42693 l -1.61796,-2.75053 0,-27.181673 c -2e-5,-1.294248 -0.26968,-2.642544 -0.80898,-4.044893 -0.53934,-1.402107 -1.29438,-2.696471 -2.26514,-3.883096 -0.97079,-1.29424 -2.10336,-2.318945 -3.39771,-3.074118 -1.18651,-0.862782 -2.42694,-1.294237 -3.7213,-1.294365 -0.97078,1.28e-4 -1.99549,0.269787 -3.07411,0.808978 -1.07865,0.539446 -2.10335,1.24056 -3.07412,2.103344 -0.86292,0.863035 -1.61796,1.833808 -2.26514,2.912322 -0.53932,0.970896 -0.80898,1.995601 -0.80898,3.074118 l 0,91.090973 2.10334,4.04489 m 0.64719,-12.29647 0,-82.19221 c -1e-5,-0.215609 0.16179,-0.647063 0.48538,-1.294366 0.32359,-0.647061 0.59325,-1.132448 0.80898,-1.456161 0.53931,-0.539196 1.29436,-1.348174 2.26514,-2.426935 1.07863,-1.078513 1.67188,-1.617831 1.77975,-1.617957 l 2.10335,0 c 0.21571,1.26e-4 0.80896,0.539444 1.77975,1.617957 0.97076,1.078761 1.72581,1.887739 2.26514,2.426935 0.43144,0.53944 0.91683,1.564145 1.45616,3.074118 0.64717,1.51021 0.97076,2.534915 0.97078,3.074118 l 0,27.181671 c -2e-5,0.21582 0.10784,0.59334 0.32359,1.13257 0.32357,0.43155 0.64716,0.97086 0.97077,1.61796 0.32357,0.53941 0.64716,1.07872 0.97077,1.61796 0.32358,0.5394 0.59323,0.91692 0.80898,1.13257 0.43144,0.43154 1.18648,1.24051 2.26514,2.42693 1.07862,1.18658 2.21118,2.42702 3.39771,3.7213 1.18648,1.29444 2.31904,2.53488 3.39771,3.7213 1.18647,1.07871 1.99545,1.83376 2.42694,2.26514 0.43142,0.64726 0.91681,1.67196 1.45616,3.07412 0.64715,1.4023 0.97074,2.427 0.97077,3.07412 l 0,27.18168 c -3e-5,0.97081 0.43142,2.10337 1.29437,3.3977 0.97073,1.2944 2.1033,2.53483 3.39771,3.72131 1.29432,1.18653 2.58869,2.21123 3.88309,3.07411 1.29432,0.75508 2.37296,1.1326 3.23592,1.13257 l 61.96774,0 c 0.64708,3e-5 1.40212,0.26969 2.26514,0.80898 0.97067,0.43148 1.88751,1.02473 2.75053,1.77975 0.97066,0.64721 1.72571,1.40226 2.26514,2.26514 0.64707,0.75507 0.97066,1.51012 0.97077,2.26514 -1.1e-4,0.6472 -0.26977,1.40225 -0.80897,2.26514 -0.53944,0.75507 -1.24055,1.45618 -2.10335,2.10335 -0.75516,0.64719 -1.56414,1.24044 -2.42693,1.77975 -0.86302,0.43147 -1.61807,0.64719 -2.26514,0.64718 l -78.14732,0 c -0.43149,1e-5 -1.29439,-0.26965 -2.58873,-0.80898 -1.29439,-0.64717 -2.04944,-1.07862 -2.26514,-1.29436 l -22.3278,-22.4896"
         style="font-family:'Chintzy CPU Shadow (BRK)';-inkscape-font-specification:'Chintzy CPU Shadow (BRK)'"
         id="path4546" />
      <path
         d="m 353.14413,176.82671 21.03344,21.03344 c 0.86288,0.86291 2.10332,1.56403 3.7213,2.10334 1.72579,0.43146 3.18195,0.64719 4.36848,0.64719 l 57.76106,0 c 1.18641,0 2.64257,-0.21573 4.36849,-0.64719 1.72572,-0.53931 3.02008,-1.24043 3.88309,-2.10334 l 21.03344,-21.03344 c 0.97065,-0.97075 1.61784,-2.10332 1.94155,-3.39771 0.43133,-1.4022 0.70099,-2.85836 0.80898,-4.36848 0.10774,-1.51006 0.10774,-2.96622 0,-4.36849 -1.2e-4,-1.51005 -1.2e-4,-2.80442 0,-3.88309 -1.2e-4,-1.18646 -1.2e-4,-2.53476 0,-4.0449 -1.2e-4,-1.51004 -0.10799,-3.02013 -0.32359,-4.53027 -0.10799,-1.51005 -0.43158,-2.96621 -0.97078,-4.36849 -0.43157,-1.40217 -1.13269,-2.6426 -2.10334,-3.7213 l -19.09189,-18.93009 c -0.10797,-0.10779 -0.43156,-0.32352 -0.97078,-0.64719 -0.43155,-0.32351 -0.75514,-0.59317 -0.97077,-0.80897 -0.64728,-0.32352 -1.61805,-0.75497 -2.91232,-1.29437 -1.1866,-0.6471 -1.83378,-0.97069 -1.94155,-0.97077 l -61.80595,0 c -1.18653,8e-5 -2.37304,-0.37745 -3.55951,-1.13257 -1.18653,-0.75497 -2.3191,-1.67181 -3.39771,-2.75053 -0.97079,-1.18642 -1.77977,-2.42685 -2.42693,-3.7213 -0.64721,-1.40214 -0.9708,-2.64257 -0.97078,-3.7213 -2e-5,-0.97068 0.21571,-2.10325 0.64719,-3.39771 0.53929,-1.29427 1.18647,-2.48077 1.94154,-3.55951 0.86289,-1.07854 1.83366,-1.99538 2.91233,-2.75052 1.07861,-0.754948 2.21118,-1.132471 3.39771,-1.132573 l 63.26211,0 c 0.53922,1.02e-4 1.24034,0.269761 2.10334,0.808983 0.97068,0.43155 1.61786,0.86301 1.94155,1.29436 0.43136,0.32369 1.1864,1.02481 2.26514,2.10334 1.1864,0.97088 2.3729,2.04951 3.55951,3.23592 1.18639,1.18659 2.31896,2.31916 3.3977,3.39771 1.1864,0.97086 1.99538,1.67198 2.42694,2.10334 0.53921,0.53941 1.13246,0.80907 1.77975,0.80898 0.75494,-0.10778 1.40212,-0.16171 1.94155,-0.1618 1.29425,9e-5 2.80434,-0.3235 4.53028,-0.97077 1.7257,-0.75496 2.58861,-1.99539 2.58873,-3.7213 l 0,-14.399816 -19.73907,-19.577278 c -0.64728,-0.754919 -1.72592,-1.509965 -3.23592,-2.26514 -1.40232,-0.754916 -2.58882,-1.132439 -3.5595,-1.13257 l -63.26211,0 c -0.97081,1.31e-4 -2.15731,0.377654 -3.55951,1.13257 -1.40225,0.755175 -2.48089,1.510221 -3.23591,2.26514 l -18.9301,18.930095 c -0.53932,0.539426 -1.13257,1.402336 -1.77975,2.588731 -0.64719,1.186606 -0.97078,2.157379 -0.97077,2.912322 l 0,40.125326 c -1e-5,1.40229 0.48538,2.80452 1.45616,4.20669 1.07863,1.29442 2.31906,2.48092 3.7213,3.55951 1.51008,0.97082 3.07411,1.7798 4.69207,2.42693 1.72581,0.64724 3.18197,0.97083 4.36849,0.97078 l 60.51158,0 c 1.07856,5e-5 2.1572,0.4315 3.23592,1.29436 1.07855,0.7551 1.99539,1.72587 2.75052,2.91232 0.86283,1.18655 1.56394,2.42698 2.10335,3.7213 0.53923,1.29441 0.80889,2.42698 0.80897,3.39771 -8e-5,1.07868 -0.32367,2.26518 -0.97077,3.55951 -0.5394,1.18654 -1.24052,2.3191 -2.10334,3.39771 -0.863,1.07867 -1.8877,1.99551 -3.07412,2.75053 -1.18658,0.75507 -2.31915,1.13259 -3.39771,1.13257 l -44.17022,0 c -0.43149,2e-5 -1.2944,-0.26964 -2.58873,-0.80898 -1.2944,-0.64716 -2.04944,-1.07861 -2.26514,-1.29437 l -11.4875,-10.84031 c -0.75506,-0.755 -1.45617,-1.18646 -2.10334,-1.29437 -0.6472,-0.10782 -1.40224,-0.16175 -2.26514,-0.16179 -0.53933,4e-5 -1.24044,0.10791 -2.10334,0.32359 -0.75506,0.21577 -1.5101,0.53936 -2.26514,0.97077 -0.75506,0.4315 -1.40224,0.97082 -1.94155,1.61796 -0.53933,0.53936 -0.80898,1.18654 -0.80898,1.94155 l 0,14.23802 m 2.42693,-11.48749 c 0,-0.2157 0,-0.48535 0,-0.80898 0.10786,-0.32356 0.16179,-0.53928 0.1618,-0.64718 0.32359,-0.53929 0.91684,-1.2404 1.77975,-2.10335 0.8629,-0.86287 1.40222,-1.29432 1.61796,-1.29436 l 2.10334,0 c 2.48086,2.4809 4.96172,5.0157 7.44261,7.60439 2.5887,2.58876 5.55496,4.58424 8.89876,5.98644 l 1.94155,0.64719 46.27356,0 c 2.1572,2e-5 3.99088,-0.59323 5.50106,-1.77976 1.61787,-1.29433 2.91223,-2.85836 3.88309,-4.69207 0.97069,-1.83365 1.6718,-3.7752 2.10335,-5.82465 0.53923,-2.04937 0.80889,-3.93698 0.80897,-5.66285 -8e-5,-3.128 -0.48547,-6.14818 -1.45616,-9.06055 -0.97086,-2.91227 -2.96634,-5.23134 -5.98644,-6.95722 -0.64726,-0.32353 -1.61803,-0.75498 -2.91232,-1.29436 -1.18658,-0.64712 -1.83376,-0.97071 -1.94155,-0.97078 l -61.80595,0 c -0.6472,7e-5 -1.56404,-0.32353 -2.75053,-0.97077 -1.18651,-0.75498 -2.31908,-1.61789 -3.39771,-2.58873 -1.07864,-0.97071 -2.04941,-1.94148 -2.91232,-2.91232 -0.75505,-1.07857 -1.13257,-1.99541 -1.13257,-2.75053 l 0,-31.226569 22.32781,-22.4896 4.20668,-2.103344 61.15877,0 c 0.43137,1.28e-4 1.29428,0.323719 2.58873,0.970774 1.29427,0.539446 1.99539,0.916969 2.10335,1.13257 l 20.38625,20.386256 c 0.10775,1.06e-4 0.16168,0.161901 0.1618,0.485388 0.10775,0.323695 0.16168,0.593355 0.1618,0.808978 -1.2e-4,0.215831 -0.0541,0.485491 -0.1618,0.808978 -1.2e-4,0.323695 -0.054,0.539422 -0.1618,0.647183 -0.21584,0.539421 -0.80909,1.240535 -1.77975,2.103346 -0.86302,0.86301 -1.40234,1.29446 -1.61795,1.29436 l -1.94155,0 c -2.48098,-2.480762 -5.01578,-5.015559 -7.6044,-7.604394 -2.48097,-2.588621 -5.39329,-4.584099 -8.73697,-5.98644 -0.21582,-0.107751 -0.59334,-0.215615 -1.13257,-0.323591 -0.53941,-0.215615 -0.863,-0.323478 -0.97077,-0.323592 l -63.26211,0 c -1.07867,1.14e-4 -2.26517,0.377637 -3.55951,1.13257 -1.29439,0.647294 -2.53482,1.510204 -3.7213,2.588731 -1.18652,0.970883 -2.21123,2.103451 -3.07412,3.397709 -0.75506,1.294471 -1.13259,2.534903 -1.13257,3.721301 l 0,14.238016 c -2e-5,0.97087 0.43144,2.10343 1.29437,3.39771 0.86289,1.29445 1.88759,2.53489 3.07412,3.7213 1.18647,1.07872 2.42691,2.0495 3.7213,2.91233 1.4022,0.75512 2.53477,1.13264 3.39771,1.13257 l 61.96774,0 c 0.3235,7e-5 1.07855,0.32366 2.26514,0.97077 1.29427,0.64726 2.10325,1.13265 2.42694,1.45616 l 21.03344,21.03344 c 1.18638,1.18656 1.83356,2.69665 1.94155,4.53028 0.10774,1.72587 0.16167,3.28989 0.16179,4.69207 -1.2e-4,1.40228 -0.054,3.02023 -0.16179,4.85388 -0.10799,1.72585 -0.75517,3.18201 -1.94155,4.36848 l -21.03344,21.03344 -4.04489,2.10334 -61.15877,0 c -0.43149,1e-5 -1.2944,-0.26965 -2.58873,-0.80898 -1.2944,-0.64717 -2.04944,-1.07862 -2.26514,-1.29436 l -20.38626,-20.38626 c -1e-5,4e-5 -0.0539,-0.16176 -0.1618,-0.48539 0,-0.32355 0,-0.59321 0,-0.80897"
         style="font-family:'Chintzy CPU Shadow (BRK)';-inkscape-font-specification:'Chintzy CPU Shadow (BRK)'"
         id="path4548" />
      <path
         d="m 477.49295,176.82671 21.03343,21.03344 c 0.86289,0.86291 2.10332,1.56403 3.72131,2.10334 1.72579,0.43146 3.18195,0.64719 4.36848,0.64719 l 57.76106,0 c 1.18641,0 2.64257,-0.21573 4.36848,-0.64719 1.72573,-0.53931 3.02009,-1.24043 3.8831,-2.10334 l 21.03344,-21.03344 c 0.86279,-0.86289 1.50997,-2.15725 1.94155,-3.8831 0.53919,-1.72579 0.80885,-3.12802 0.80897,-4.20668 l 0,-83.648373 c -1.2e-4,-1.294248 -0.26978,-2.642544 -0.80897,-4.044893 -0.43158,-1.509971 -1.1327,-2.858267 -2.10335,-4.044892 -0.86303,-1.29424 -1.88773,-2.318945 -3.07412,-3.074118 -1.18661,-0.754918 -2.48098,-1.132441 -3.88309,-1.132569 -0.97089,1.28e-4 -1.99559,0.269787 -3.07412,0.808978 -1.07875,0.539446 -2.10345,1.24056 -3.07412,2.103344 -0.97088,0.863035 -1.77986,1.833808 -2.42693,2.912322 -0.64729,1.07876 -0.97088,2.103465 -0.97078,3.074118 l 0,78.147313 c -10e-5,1.18654 -0.32369,2.48091 -0.97077,3.8831 -0.64729,1.40226 -1.5102,2.75056 -2.58873,4.04489 -0.97088,1.18654 -2.10345,2.21124 -3.39771,3.07412 -1.1866,0.86294 -2.3731,1.29439 -3.55951,1.29437 l -10.19313,0 c -0.75512,2e-5 -1.7259,-0.32357 -2.91232,-0.97078 -1.18658,-0.64715 -2.37308,-1.45613 -3.5595,-2.42693 -1.07872,-0.97074 -2.04949,-1.94152 -2.91233,-2.91233 -0.75511,-1.0786 -1.13264,-1.94151 -1.13257,-2.58873 l 0,-78.147313 c -7e-5,-1.294248 -0.26973,-2.642544 -0.80897,-4.044893 -0.53939,-1.509971 -1.29444,-2.858267 -2.26514,-4.044892 -0.97085,-1.186376 -2.10341,-2.157149 -3.39771,-2.912322 -1.18657,-0.862782 -2.427,-1.294237 -3.7213,-1.294365 -0.97084,1.28e-4 -1.99554,0.269787 -3.07412,0.808978 -1.0787,0.539446 -2.1034,1.24056 -3.07412,2.103344 -0.97083,0.863035 -1.77981,1.833808 -2.42694,2.912322 -0.64723,1.07876 -0.97082,2.103465 -0.97077,3.074118 l 0,78.147313 c -5e-5,0.32364 -0.10792,0.75509 -0.32359,1.29437 -0.10792,0.53936 -0.32364,1.13261 -0.64718,1.77975 -0.21578,0.64722 -0.48544,1.2944 -0.80898,1.94155 -0.21578,0.53935 -0.43151,0.91688 -0.64718,1.13257 -0.53937,0.53935 -1.29442,1.34833 -2.26514,2.42693 -0.97082,1.07867 -1.56408,1.61799 -1.77976,1.61796 l -2.10334,0 c -4e-5,3e-5 -0.16184,-0.16176 -0.48539,-0.48539 -0.32363,-0.32356 -0.70115,-0.70108 -1.13257,-1.13257 -0.43149,-0.43142 -0.86295,-0.86287 -1.29436,-1.29436 -0.4315,-0.43142 -0.80902,-0.80894 -1.13257,-1.13257 -0.21577,-0.32356 -0.53936,-0.80894 -0.97078,-1.45616 -0.43149,-0.75501 -0.64722,-1.18647 -0.64718,-1.29437 l 0,-27.18167 c -4e-5,-1.07857 -0.43149,-2.58867 -1.29436,-4.53028 -0.75509,-1.94148 -1.56407,-3.39764 -2.42694,-4.36849 -0.43149,-0.43138 -1.24047,-1.18642 -2.42694,-2.26513 -1.07866,-1.18643 -2.21123,-2.42686 -3.3977,-3.72131 -1.18653,-1.29428 -2.37303,-2.53471 -3.55951,-3.7213 -1.07866,-1.18641 -1.83371,-1.99539 -2.26514,-2.42693 l -1.61796,-2.75053 0,-27.181673 c -2e-5,-1.294248 -0.26968,-2.642544 -0.80897,-4.044893 -0.53934,-1.509971 -1.29439,-2.858267 -2.26514,-4.044892 -0.9708,-1.186376 -2.10336,-2.157149 -3.39771,-2.912322 -1.18652,-0.862782 -2.42695,-1.294237 -3.7213,-1.294365 -0.97079,1.28e-4 -1.99549,0.269787 -3.07412,0.808978 -1.07865,0.539446 -2.10335,1.24056 -3.07412,2.103344 -0.86291,0.755171 -1.61796,1.672012 -2.26514,2.750527 -0.53932,1.078759 -0.80898,2.157396 -0.80898,3.235913 l 0,91.090973 2.10335,4.04489 m 0.64718,-12.29647 0,-82.19221 c -10e-6,-0.215609 0.16179,-0.647063 0.48539,-1.294366 0.32358,-0.754925 0.59324,-1.240312 0.80897,-1.456161 0.53932,-0.539196 1.29436,-1.348174 2.26514,-2.426935 1.07863,-1.078513 1.67188,-1.617831 1.77976,-1.617957 l 2.10334,0 c 0.21572,1.26e-4 0.80897,0.539444 1.77975,1.617957 0.97076,1.078761 1.72581,1.887739 2.26514,2.426935 0.21571,0.215849 0.43144,0.647304 0.64718,1.294366 0.32358,0.539439 0.59324,1.132689 0.80898,1.779752 0.32358,0.647301 0.5393,1.240551 0.64719,1.779753 0.21571,0.539435 0.32357,0.97089 0.32359,1.294365 l 0,27.181671 c -2e-5,0.21582 0.10784,0.59334 0.32359,1.13257 0.32357,0.43155 0.64716,0.97086 0.97077,1.61796 0.32357,0.53941 0.64716,1.07872 0.97078,1.61796 0.32357,0.5394 0.59323,0.91692 0.80897,1.13257 0.43144,0.43154 1.18648,1.24051 2.26514,2.42693 1.07862,1.18658 2.21119,2.42702 3.39771,3.7213 1.18648,1.29444 2.31905,2.53488 3.39771,3.7213 1.18647,1.07871 1.99545,1.83376 2.42694,2.26514 0.43142,0.64726 0.91681,1.67196 1.45616,3.07412 0.64715,1.29443 0.97074,2.31914 0.97077,3.07412 l 0,27.18168 c -3e-5,0.97081 0.32356,1.99551 0.97078,3.07411 0.64714,1.07867 1.45612,2.04945 2.42693,2.91233 0.97074,0.86294 1.99544,1.56405 3.07412,2.10334 1.0786,0.53935 2.1033,0.80901 3.07412,0.80898 1.29432,3e-5 2.53475,-0.3775 3.7213,-1.13257 1.29432,-0.86288 2.42688,-1.88759 3.39771,-3.07412 0.97072,-1.18647 1.72577,-2.48083 2.26514,-3.8831 0.53926,-1.51005 0.80892,-2.91228 0.80898,-4.20668 l 0,-78.14732 c -6e-5,-0.107745 0.21567,-0.485268 0.64718,-1.13257 0.4314,-0.754926 0.75499,-1.294244 0.97077,-1.617957 0.32354,-0.323469 0.70106,-0.700992 1.13257,-1.132569 0.4314,-0.431332 0.86286,-0.862787 1.29437,-1.294366 0.4314,-0.431331 0.80892,-0.808853 1.13257,-1.13257 0.32353,-0.323466 0.48533,-0.485261 0.48539,-0.485387 l 2.10334,0 c 0.21566,1.26e-4 0.80892,0.539444 1.77975,1.617957 0.97071,1.078761 1.72576,1.887739 2.26514,2.426935 0.21566,0.215849 0.43139,0.647304 0.64719,1.294366 0.32352,0.539439 0.59318,1.132689 0.80897,1.779752 0.32353,0.647301 0.53925,1.240551 0.64719,1.779753 0.21565,0.539435 0.32352,0.97089 0.32359,1.294365 l 0,78.147321 c -7e-5,1.07867 0.43138,2.26517 1.29436,3.5595 0.86284,1.2944 1.88755,2.4809 3.07412,3.55951 1.29429,1.07866 2.58866,1.9955 3.8831,2.75052 1.40215,0.64721 2.64258,0.9708 3.7213,0.97078 l 12.13467,0 c 1.51,2e-5 3.02009,-0.48536 4.53028,-1.45617 1.51,-0.97074 2.85829,-2.15724 4.0449,-3.5595 1.18639,-1.4022 2.15717,-2.91229 2.91232,-4.53028 0.75494,-1.72578 1.13246,-3.28981 1.13257,-4.69207 l 0,-78.14732 c -1.1e-4,-0.107745 0.21562,-0.485268 0.64718,-1.13257 0.43135,-0.754926 0.75494,-1.294244 0.97077,-1.617957 0.32349,-0.323469 0.70101,-0.700992 1.13257,-1.132569 0.43135,-0.431332 0.86281,-0.862787 1.29437,-1.294366 0.43134,-0.431331 0.80887,-0.808853 1.13257,-1.13257 0.32348,-0.323466 0.53921,-0.485261 0.64718,-0.485387 l 1.94155,0 c 0.21561,1.26e-4 0.80886,0.539444 1.77975,1.617957 0.97066,1.078761 1.72571,1.887739 2.26514,2.426935 0.5392,0.755168 1.02459,1.779873 1.45616,3.074118 0.43134,1.186619 0.64707,2.211324 0.64719,3.074118 l 0,74.102421 c -1.2e-4,0.64723 -0.21585,1.72586 -0.64719,3.23592 -0.43157,1.40226 -0.91696,2.37304 -1.45616,2.91232 l -21.03344,21.03344 -4.04489,2.10334 -61.15877,0 c -0.43148,1e-5 -1.29439,-0.26965 -2.58873,-0.80898 -1.29439,-0.64717 -2.04944,-1.07862 -2.26514,-1.29436 l -22.3278,-22.4896"
         style="font-family:'Chintzy CPU Shadow (BRK)';-inkscape-font-specification:'Chintzy CPU Shadow (BRK)'"
         id="path4550" />
    </g>
  </g>
</svg>
